<svg width="128" height="128" viewBox="0 0 128 128" fill="none" xmlns="http://www.w3.org/2000/svg">
<path fill-rule="evenodd" clip-rule="evenodd" d="M123.975 48C126.198 48 128 49.8021 128 52.0252C128 93.9849 93.9849 128 52.0252 128C49.8021 128 48 126.198 48 123.975C48 121.752 49.8021 119.95 52.0252 119.95C89.5388 119.95 119.95 89.5388 119.95 52.0252C119.95 49.8021 121.752 48 123.975 48Z" fill="#005EB8"/>
<path d="M96.1628 76C100.514 68.901 104.723 59.4356 103.895 46.1842C102.18 18.7345 77.3178 -2.08926 53.8413 0.167465C44.6506 1.05093 35.2136 8.54241 36.052 21.961C36.4164 27.7923 39.2705 31.2339 43.9088 33.8799C48.3237 36.3984 53.9956 37.9938 60.4255 39.8023C68.1925 41.9868 77.2017 44.4405 84.1261 49.5433C92.4251 55.6591 98.0982 62.7485 96.1628 76Z" fill="#003B5C"/>
<path d="M7.83722 28C3.48552 35.099 -0.723013 44.5644 0.104986 57.8158C1.82014 85.2655 26.6822 106.089 50.1587 103.833C59.3494 102.949 68.7864 95.4576 67.948 82.039C67.5836 76.2077 64.7295 72.7661 60.0912 70.1201C55.6763 67.6016 50.0044 66.0062 43.5745 64.1977C35.8075 62.0132 26.7983 59.5595 19.8739 54.4567C11.5749 48.3409 5.90185 41.2515 7.83722 28Z" fill="#005EB8"/>
</svg>
