<?xml version="1.0" encoding="utf-8"?>
<!-- Generator: Adobe Illustrator 27.8.1, SVG Export Plug-In . SVG Version: 6.00 Build 0)  -->
<svg version="1.1" id="Layer_1" xmlns="http://www.w3.org/2000/svg" xmlns:xlink="http://www.w3.org/1999/xlink" x="0px" y="0px"
	 viewBox="0 0 80 80" style="enable-background:new 0 0 80 80;" xml:space="preserve">
<style type="text/css">
	.st0{fill:#012B45;}
	.st1{fill:#05182E;}
	.st2{fill:#E3A324;}
	.st3{fill:#FCB51D;}
	.st4{fill:#231F20;}
</style>
<g>
	<path class="st0" d="M39.99,0.87v69.76c-1.19,0-2.37-0.07-3.53-0.21l-9.41,8.7c-3.13-1.07-6.1-2.51-8.83-4.27l0.93-12.73
		c-1.71-1.66-3.21-3.53-4.47-5.56L2.16,54.64c-1.1-3.05-1.83-6.28-2.16-9.64l10.32-7.06c0.24-2.5,0.79-4.92,1.61-7.2L5.76,20.01
		c1.76-2.85,3.85-5.46,6.24-7.78l11.72,3.59c2.1-1.37,4.39-2.49,6.81-3.3L35,1.19C36.64,0.98,38.3,0.87,39.99,0.87z"/>
	<path class="st1" d="M80,45.01c-0.33,3.36-1.06,6.59-2.16,9.64l-12.51,1.92c-1.27,2.03-2.77,3.9-4.48,5.56l0.93,12.73
		c-2.74,1.76-5.7,3.21-8.83,4.27l-9.42-8.7c-1.16,0.14-2.33,0.21-3.53,0.21V0.87c1.7,0,3.36,0.1,4.99,0.31l4.49,11.35
		c2.43,0.81,4.71,1.93,6.81,3.3L68,12.24c2.39,2.32,4.49,4.92,6.24,7.77l-6.17,10.73c0.82,2.28,1.37,4.7,1.61,7.2L80,45.01z"/>
	<g>
		<g>
			<path class="st2" d="M62.39,36.79h-9.62c-0.52,0-0.95,0.42-0.95,0.94v26.59c0,0.52-0.43,0.95-0.95,0.95H40V12.51
				c0.24,0,0.49,0.09,0.67,0.27l22.39,22.4C63.65,35.78,63.24,36.79,62.39,36.79z"/>
		</g>
		<path class="st3" d="M40,12.51v52.75H29.13c-0.52,0-0.95-0.43-0.95-0.95V37.73c0-0.52-0.43-0.94-0.95-0.94h-9.62
			c-0.84,0-1.26-1.02-0.67-1.61l22.4-22.4C39.51,12.6,39.75,12.51,40,12.51z"/>
	</g>
</g>
</svg>
