<svg width="743" height="142" viewBox="0 0 743 142" fill="none" xmlns="http://www.w3.org/2000/svg">
<path fill-rule="evenodd" clip-rule="evenodd" d="M123.975 53C126.198 53 128 54.8021 128 57.0252C128 98.9849 93.9849 133 52.0252 133C49.8021 133 48 131.198 48 128.975C48 126.752 49.8021 124.95 52.0252 124.95C89.5388 124.95 119.95 94.5388 119.95 57.0252C119.95 54.8021 121.752 53 123.975 53Z" fill="#005EB8"/>
<path d="M96.1628 81C100.514 73.901 104.723 64.4356 103.895 51.1842C102.18 23.7345 77.3178 2.91074 53.8413 5.16747C44.6506 6.05093 35.2136 13.5424 36.052 26.961C36.4164 32.7923 39.2705 36.2339 43.9088 38.8799C48.3237 41.3984 53.9956 42.9938 60.4255 44.8023C68.1925 46.9868 77.2017 49.4405 84.1261 54.5433C92.4251 60.6591 98.0982 67.7485 96.1628 81Z" fill="#003B5C"/>
<path d="M7.83722 33C3.48552 40.099 -0.723013 49.5644 0.104986 62.8158C1.82014 90.2655 26.6822 111.089 50.1587 108.833C59.3494 107.949 68.7864 100.458 67.948 87.039C67.5836 81.2077 64.7295 77.7661 60.0912 75.1201C55.6763 72.6016 50.0044 71.0062 43.5745 69.1977C35.8075 67.0132 26.7983 64.5595 19.8739 59.4567C11.5749 53.3409 5.90185 46.2515 7.83722 33Z" fill="#005EB8"/>
<path fill-rule="evenodd" clip-rule="evenodd" d="M725 61V107H743V57C743 47.7853 741.199 40.8241 737.598 36.1022C733.996 31.3344 728.564 29 721.5 29C713.835 29 707.694 33.4816 704 41H703C703.273 37.1181 703.519 34.8944 703.699 33.2706C703.885 31.596 704 30.5594 704 29V0H686V107H705V70C705 61.7022 705.277 55.563 706.985 51.162C708.694 46.7151 711.672 44.4916 715.92 44.4916C721.599 44.4916 725 49.7682 725 61ZM463.704 101.458C468.568 96.4296 471 89.1872 471 79.7305C471 73.8259 469.667 68.5671 467.001 63.9541C464.382 59.3411 459.729 54.8204 453.041 50.3919C448.084 47.1628 444.6 44.2797 442.589 41.7425C440.624 39.2054 439.642 36.23 439.642 32.8164C439.642 29.3566 440.461 26.635 442.098 24.6514C443.781 22.6216 446.166 21.6068 449.253 21.6068C452.059 21.6068 454.678 22.1142 457.11 23.1291C459.589 24.1439 461.95 25.2972 464.195 26.5888L470.509 11.5043C463.26 7.16811 455.707 5 447.85 5C439.619 5 433.048 7.53715 428.138 12.6114C423.274 17.6857 420.842 24.5591 420.842 33.2315C420.842 37.7523 421.45 41.7195 422.666 45.1331C423.928 48.5467 425.682 51.6374 427.927 54.4052C430.219 57.1269 433.563 59.9869 437.959 62.9854C443.01 66.399 446.634 69.5128 448.832 72.3267C451.03 75.0945 452.129 78.1621 452.129 81.5296C452.129 84.9432 451.194 87.6418 449.323 89.6254C447.499 91.609 444.763 92.6008 441.116 92.6008C434.708 92.6008 427.67 90.1329 420 85.1969V103.81C426.267 107.27 433.867 109 442.799 109C451.919 109 458.887 106.486 463.704 101.458ZM483.348 98.7489C488.959 105.583 496.612 109 506.304 109C514.606 109 521.725 107.222 527.661 103.667V88.4978C521.354 92.2381 515.186 94.1082 509.157 94.1082C504.426 94.1082 500.716 92.4459 498.026 89.1212C495.336 85.7504 494.139 80.8802 494 74H531V63.9091C531 52.873 528.565 44.3074 523.696 38.2121C518.826 32.0707 512.171 29 503.73 29C494.687 29 487.638 32.5786 482.583 39.7359C477.528 46.8932 475 56.8442 475 69.5887C475 82.1486 477.783 91.8687 483.348 98.7489ZM497.052 47.4242C498.768 44.6075 500.948 43.1991 503.591 43.1991C506.42 43.1991 508.646 44.6537 510.27 47.5628C511.893 50.4719 512.907 55.3665 513 61H494C494.278 55.1356 495.336 50.1948 497.052 47.4242ZM576 107L573 97H572C569.243 101.517 566.591 104.736 563.647 106.442C560.703 108.147 556.989 109 552.503 109C546.756 109 542.224 106.88 538.906 102.639C535.635 98.3979 534 92.4976 534 84.9378C534 76.8248 536.243 70.8093 540.728 66.8911C545.261 62.9268 552.013 60.7373 560.984 60.3224L571.357 59.9075V54.376C571.357 47.185 568.203 43.5895 561.895 43.5895C557.222 43.5895 551.849 45.3872 545.775 48.9827L539.327 36.2602C547.083 31.4201 555.389 29 564.5 29C572.77 29 579.183 31.3509 583.482 36.0527C587.827 40.7084 590 47.3232 590 55.8971V107H576ZM560.143 94.618C563.554 94.618 566.264 93.1199 568.273 90.1236C570.329 87.0812 571.357 83.0478 571.357 78.0233V71.5238L565.61 71.8003C561.358 72.0308 558.227 73.2293 556.218 75.3959C554.255 77.5624 553.274 80.7891 553.274 85.0761C553.274 91.4373 555.564 94.618 560.143 94.618ZM636 30.5C633.86 29.8101 630.674 29 628.443 29C625.301 29 622.546 30.0349 620.179 32.1046C617.811 34.1743 616.004 36.1706 614 41H613L610 31H596V107H614.927V67C614.927 60.2849 615.352 55.9525 617.72 52.457C620.088 48.9154 623.48 47.1447 627.897 47.1447C629.946 47.1447 631.725 47.5401 633 48L636 30.5ZM664 109C654.885 109 647.908 105.956 643.145 99.2604C638.382 92.5649 636 82.7294 636 69.7539C636 56.1782 638.244 46.0425 642.733 39.347C647.267 32.6515 654.034 29 663.469 29C666.309 29 669.504 29.7193 672.618 30.5505C675.733 31.3816 679.527 32.43 682 34L675.779 48.4899C671.977 46.2272 668.611 45.0959 665.679 45.0959C661.786 45.0959 658.969 47.1508 657.229 51.2604C655.534 55.3239 654.687 61.4422 654.687 69.6154C654.687 77.6039 655.534 83.5836 657.229 87.5548C658.924 91.4798 661.695 93.4422 665.542 93.4422C670.122 93.4422 674.908 91.8261 679.901 88.5938V104.802C675.092 107.803 669.817 109 664 109Z" fill="#003B5C"/>
<path fill-rule="evenodd" clip-rule="evenodd" d="M215.554 95.5249C221.851 86.5415 225 73.6884 225 56.9655C225 40.2425 221.874 27.4124 215.623 18.4751C209.372 9.49169 200.389 5 188.674 5C176.82 5 167.744 9.46866 161.446 18.406C155.149 27.2972 152 40.1043 152 56.8272C152 73.6884 155.149 86.6106 161.446 95.594C167.744 104.531 176.773 109 188.535 109C200.25 109 209.256 104.508 215.554 95.5249ZM175.685 83.2937C172.768 77.2587 171.309 68.4826 171.309 56.9655C171.309 45.4022 172.768 36.6261 175.685 30.6372C178.602 24.6022 182.932 21.5847 188.674 21.5847C199.972 21.5847 205.621 33.3783 205.621 56.9655C205.621 80.5526 199.926 92.3462 188.535 92.3462C182.886 92.3462 178.602 89.3287 175.685 83.2937ZM256.372 106.996C258.938 108.477 261.7 109 265 109C272.059 109 277.801 105.653 281.881 98.5224C285.96 91.3919 288 81.5528 288 69.0049C288 56.2719 286.029 46.4327 282.087 39.4874C278.145 32.4958 272.69 29 265.723 29C258.48 29 252.805 33.3139 249 41H248L245 31H231V142H249V109C249 107.704 248.733 103.297 248 97H249C250.5 101.5 253.85 105.468 256.372 106.996ZM251.765 49.7664C253.369 46.3864 255.959 44.6964 259.534 44.6964C262.881 44.6964 265.333 46.6874 266.891 50.6693C268.496 54.6513 269.298 60.6706 269.298 68.7271C269.298 85.118 266.089 93.3135 259.672 93.3135C255.959 93.3135 253.3 91.3688 251.696 87.4794C250.092 83.59 249.29 77.3856 249.29 68.866V66.4352C249.381 58.6564 250.206 53.1002 251.765 49.7664ZM323.304 109C313.612 109 305.959 105.583 300.348 98.7489C294.783 91.8687 292 82.1486 292 69.5887C292 56.8442 294.528 46.8932 299.583 39.7359C304.638 32.5786 311.687 29 320.73 29C329.171 29 335.826 32.0707 340.696 38.2121C345.565 44.3074 348 52.873 348 63.9091V74H311C311.139 80.8802 312.336 85.7504 315.026 89.1212C317.716 92.4459 321.426 94.1082 326.157 94.1082C332.186 94.1082 338.354 92.2381 344.661 88.4978V103.667C338.725 107.222 331.606 109 323.304 109ZM320.591 43.1991C317.948 43.1991 315.768 44.6075 314.052 47.4242C312.336 50.1948 311.278 55.1356 311 61H330C329.907 55.3665 328.893 50.4719 327.27 47.5628C325.646 44.6537 323.42 43.1991 320.591 43.1991ZM393 61V107H411V57.3982C411 48.1178 409.245 41.0646 405.736 36.2388C402.273 31.4129 397.033 29 390.015 29C385.859 29 382.235 30.0209 379.141 32.0626C376.047 34.0579 373.662 37.427 372 41H371L368.5 31H354V107H373V70.5C373 61.0803 373.346 54.6605 375.193 50.7163C377.04 46.7257 379.949 44.7304 383.92 44.7304C386.921 44.7304 389.091 46.1689 390.43 49.0458C391.769 51.9228 393 55.3853 393 61Z" fill="#005EB8"/>
</svg>
